<svg width="106" height="60" viewBox="0 0 106 60" fill="none" xmlns="http://www.w3.org/2000/svg">
<path d="M24.1462 21.1028H24.1433C21.7453 21.1028 19.8013 22.8304 19.8013 24.9615V24.964C19.8013 27.0951 21.7453 28.8227 24.1433 28.8227H24.1462C26.5442 28.8227 28.4882 27.0951 28.4882 24.964V24.9615C28.4882 22.8304 26.5442 21.1028 24.1462 21.1028Z" fill="#2196F3"/>
<path d="M56.195 19.8693C56.1882 16.9093 54.8623 14.0722 52.5074 11.979C50.1525 9.88568 46.9604 8.70667 43.6297 8.69995C40.298 8.70533 37.1045 9.88374 34.7484 11.9772C32.3922 14.0706 31.0655 16.9084 31.0587 19.8693V36.1921C31.0587 36.1921 56.1922 33.7044 56.195 19.8718V19.8693Z" fill="#2196F3"/>
<path d="M11 41.5495C11.006 43.6091 11.9291 45.5828 13.5676 47.0394C15.2061 48.496 17.4267 49.317 19.7442 49.3231V49.3231C22.0612 49.317 24.2814 48.4963 25.9197 47.0403C27.5581 45.5843 28.4816 43.6112 28.4884 41.552V41.552V30.1943C28.4884 30.1943 11 31.9266 11 41.5495ZM19.7442 43.5844C19.2913 43.5844 18.8486 43.4651 18.472 43.2415C18.0955 43.0179 17.802 42.7001 17.6287 42.3282C17.4554 41.9564 17.41 41.5472 17.4984 41.1525C17.5867 40.7577 17.8048 40.3951 18.125 40.1105C18.4453 39.8259 18.8533 39.6321 19.2975 39.5536C19.7416 39.4751 20.202 39.5154 20.6205 39.6694C21.0389 39.8234 21.3965 40.0843 21.6481 40.4189C21.8997 40.7535 22.034 41.147 22.034 41.5495C22.0351 41.8173 21.9767 42.0828 21.8622 42.3306C21.7476 42.5783 21.5791 42.8036 21.3664 42.9933C21.1536 43.1831 20.9008 43.3337 20.6224 43.4364C20.3441 43.5392 20.0456 43.5921 19.7442 43.5921V43.5844Z" fill="#2196F3"/>
<path d="M37.4177 44.4637H35.7302V46.2069H34.8513V41.9413H37.6286V42.6532H35.7302V43.7548H37.4177V44.4637ZM41.6423 44.1708C41.6423 44.5907 41.5681 44.9589 41.4196 45.2753C41.2712 45.5917 41.0583 45.8358 40.7809 46.0077C40.5056 46.1796 40.1891 46.2655 39.8317 46.2655C39.4782 46.2655 39.1628 46.1805 38.8854 46.0106C38.6081 45.8407 38.3932 45.5985 38.2409 45.2841C38.0886 44.9677 38.0114 44.6044 38.0095 44.1942V43.9833C38.0095 43.5634 38.0847 43.1942 38.235 42.8759C38.3874 42.5555 38.6013 42.3104 38.8766 42.1405C39.154 41.9686 39.4704 41.8827 39.8259 41.8827C40.1813 41.8827 40.4968 41.9686 40.7722 42.1405C41.0495 42.3104 41.2634 42.5555 41.4138 42.8759C41.5661 43.1942 41.6423 43.5624 41.6423 43.9803V44.1708ZM40.7516 43.9774C40.7516 43.5302 40.6716 43.1903 40.5114 42.9579C40.3513 42.7255 40.1227 42.6093 39.8259 42.6093C39.5309 42.6093 39.3034 42.7245 39.1432 42.955C38.9831 43.1835 38.902 43.5194 38.9001 43.9628V44.1708C38.9001 44.6063 38.9802 44.9442 39.1403 45.1844C39.3005 45.4247 39.5309 45.5448 39.8317 45.5448C40.1266 45.5448 40.3532 45.4296 40.5114 45.1991C40.6696 44.9667 40.7497 44.6288 40.7516 44.1854V43.9774ZM44.4929 45.0878C44.4929 44.9218 44.4343 44.7948 44.3171 44.7069C44.1999 44.6171 43.989 44.5233 43.6843 44.4257C43.3796 44.326 43.1384 44.2284 42.9606 44.1327C42.4763 43.871 42.2341 43.5184 42.2341 43.0751C42.2341 42.8446 42.2985 42.6395 42.4274 42.4598C42.5583 42.2782 42.7448 42.1366 42.987 42.035C43.2311 41.9335 43.5046 41.8827 43.8073 41.8827C44.112 41.8827 44.3835 41.9384 44.6218 42.0497C44.86 42.1591 45.0446 42.3143 45.1755 42.5155C45.3083 42.7167 45.3747 42.9452 45.3747 43.201H44.4958C44.4958 43.0057 44.4343 42.8544 44.3112 42.7469C44.1882 42.6376 44.0153 42.5829 43.7927 42.5829C43.5778 42.5829 43.4108 42.6288 43.2917 42.7206C43.1725 42.8104 43.113 42.9296 43.113 43.078C43.113 43.2167 43.1823 43.3329 43.321 43.4266C43.4616 43.5204 43.6677 43.6083 43.9391 43.6903C44.4391 43.8407 44.8034 44.0272 45.0319 44.2499C45.2604 44.4725 45.3747 44.7499 45.3747 45.0819C45.3747 45.451 45.235 45.7411 44.9557 45.952C44.6765 46.161 44.3005 46.2655 43.8278 46.2655C43.4997 46.2655 43.2009 46.2059 42.9313 46.0868C42.6618 45.9657 42.4557 45.8007 42.3132 45.5917C42.1725 45.3827 42.1022 45.1405 42.1022 44.8651H42.9841C42.9841 45.3358 43.2653 45.5712 43.8278 45.5712C44.0368 45.5712 44.1999 45.5292 44.3171 45.4452C44.4343 45.3593 44.4929 45.2401 44.4929 45.0878ZM49.1833 42.6532H47.8766V46.2069H46.9977V42.6532H45.7087V41.9413H49.1833V42.6532ZM52.2536 44.3583H50.5661V45.5009H52.5466V46.2069H49.6872V41.9413H52.5407V42.6532H50.5661V43.6698H52.2536V44.3583ZM54.6413 44.6454H53.9411V46.2069H53.0622V41.9413H54.6472C55.1511 41.9413 55.5397 42.0536 55.8132 42.2782C56.0866 42.5028 56.2233 42.8202 56.2233 43.2303C56.2233 43.5214 56.1599 43.7645 56.0329 43.9598C55.9079 44.1532 55.7175 44.3075 55.4616 44.4227L56.3845 46.1659V46.2069H55.4411L54.6413 44.6454ZM53.9411 43.9335H54.6501C54.8708 43.9335 55.0417 43.8778 55.1628 43.7665C55.2839 43.6532 55.3444 43.4979 55.3444 43.3007C55.3444 43.0995 55.2868 42.9413 55.1716 42.826C55.0583 42.7108 54.8835 42.6532 54.6472 42.6532H53.9411V43.9335ZM59.2673 44.704V46.2069H58.3884V41.9413H60.0524C60.3727 41.9413 60.654 41.9999 60.8962 42.1171C61.1403 42.2343 61.3278 42.4012 61.4587 42.618C61.5895 42.8329 61.655 43.078 61.655 43.3534C61.655 43.7714 61.5114 44.1014 61.2243 44.3436C60.9391 44.5839 60.5436 44.704 60.0378 44.704H59.2673ZM59.2673 43.9921H60.0524C60.2849 43.9921 60.4616 43.9374 60.5827 43.828C60.7057 43.7186 60.7673 43.5624 60.7673 43.3593C60.7673 43.1503 60.7057 42.9813 60.5827 42.8524C60.4597 42.7235 60.2897 42.6571 60.0729 42.6532H59.2673V43.9921ZM64.8278 44.3583H63.1403V45.5009H65.1208V46.2069H62.2614V41.9413H65.1149V42.6532H63.1403V43.6698H64.8278V44.3583ZM68.9059 42.6532H67.5993V46.2069H66.7204V42.6532H65.4313V41.9413H68.9059V42.6532ZM71.9763 44.3583H70.2888V45.5009H72.2692V46.2069H69.4099V41.9413H72.2634V42.6532H70.2888V43.6698H71.9763V44.3583ZM74.364 44.6454H73.6638V46.2069H72.7849V41.9413H74.3698C74.8737 41.9413 75.2624 42.0536 75.5358 42.2782C75.8093 42.5028 75.946 42.8202 75.946 43.2303C75.946 43.5214 75.8825 43.7645 75.7556 43.9598C75.6306 44.1532 75.4401 44.3075 75.1843 44.4227L76.1071 46.1659V46.2069H75.1638L74.364 44.6454ZM73.6638 43.9335H74.3727C74.5934 43.9335 74.7643 43.8778 74.8854 43.7665C75.0065 43.6532 75.0671 43.4979 75.0671 43.3007C75.0671 43.0995 75.0095 42.9413 74.8942 42.826C74.7809 42.7108 74.6061 42.6532 74.3698 42.6532H73.6638V43.9335ZM78.8288 45.0878C78.8288 44.9218 78.7702 44.7948 78.653 44.7069C78.5358 44.6171 78.3249 44.5233 78.0202 44.4257C77.7155 44.326 77.4743 44.2284 77.2966 44.1327C76.8122 43.871 76.57 43.5184 76.57 43.0751C76.57 42.8446 76.6345 42.6395 76.7634 42.4598C76.8942 42.2782 77.0807 42.1366 77.3229 42.035C77.5671 41.9335 77.8405 41.8827 78.1432 41.8827C78.4479 41.8827 78.7194 41.9384 78.9577 42.0497C79.196 42.1591 79.3806 42.3143 79.5114 42.5155C79.6442 42.7167 79.7106 42.9452 79.7106 43.201H78.8317C78.8317 43.0057 78.7702 42.8544 78.6472 42.7469C78.5241 42.6376 78.3513 42.5829 78.1286 42.5829C77.9138 42.5829 77.7468 42.6288 77.6276 42.7206C77.5085 42.8104 77.4489 42.9296 77.4489 43.078C77.4489 43.2167 77.5182 43.3329 77.6569 43.4266C77.7975 43.5204 78.0036 43.6083 78.2751 43.6903C78.7751 43.8407 79.1393 44.0272 79.3679 44.2499C79.5964 44.4725 79.7106 44.7499 79.7106 45.0819C79.7106 45.451 79.571 45.7411 79.2917 45.952C79.0124 46.161 78.6364 46.2655 78.1638 46.2655C77.8356 46.2655 77.5368 46.2059 77.2673 46.0868C76.9977 45.9657 76.7917 45.8007 76.6491 45.5917C76.5085 45.3827 76.4382 45.1405 76.4382 44.8651H77.32C77.32 45.3358 77.6013 45.5712 78.1638 45.5712C78.3727 45.5712 78.5358 45.5292 78.653 45.4452C78.7702 45.3593 78.8288 45.2401 78.8288 45.0878Z" fill="#2196F3"/>
</svg>
